<svg width="93" height="100" viewBox="0 0 93 100" fill="none" xmlns="http://www.w3.org/2000/svg">
<path d="M20.3188 6.53957C19.733 8.50726 19.2412 10.5072 18.8483 12.5282C12.257 46.4373 34.4788 79.3835 68.3878 85.9747C74.1834 87.1013 80.0197 87.4093 85.8112 86.9023C84.341 87.9999 82.8137 89.0214 81.2358 89.9584C77.6991 92.0586 73.9188 93.7367 70.0009 94.9444C66.0136 96.1734 61.8829 96.9156 57.7255 97.1505C53.4437 97.3924 49.1146 97.0963 44.8604 96.2694C41.4029 95.5973 38.0161 94.5768 34.7957 93.2386C31.6571 91.9343 28.6346 90.3115 25.8148 88.4148C23.0462 86.5524 20.4427 84.4065 18.0779 82.0382C15.7353 79.6921 13.6054 77.1054 11.7484 74.3523C9.89142 71.5992 8.29097 68.6555 6.99328 65.6046C5.68315 62.5245 4.66902 59.3061 3.97946 56.0413C3.27718 52.7164 2.90381 49.3058 2.87031 45.9072C2.83597 42.4201 3.15937 38.8978 3.83144 35.4402C4.5014 31.9937 5.51725 28.6172 6.84937 25.406C8.14778 22.276 9.76322 19.2612 11.6508 16.4476C13.5042 13.6849 15.6401 11.0857 17.9971 8.72361C18.7466 7.97254 19.5225 7.24522 20.3188 6.53957Z" fill="#FFEC8D" stroke="#707070" stroke-width="4"/>
</svg>
